PathFileType   4   (X/Y/Z)
DataRate	CameraRate	NumFrames	NumMarkers	Units	OrigDataRate	OrigDataStartFrame	OrigNumFrames
120.0	120.0	11	37	mm	120.0	47	186
Frame#	Time	midhip	hip_r	hip_l	knee_r	knee_l	ankle_r	ankle_l	midasis	asis_r	asis_l	psis_r	psis_l	epicondLat_r	epicondLat_l	epicondMed_r	epicondMed_l	malleolusLat_r	malleolusLat_l	malleolusMedv_r	malleolusMedv_l	neck	subclavicle_r	subclavicle_l	sternalnotch	xyphoidprocess	thighwand_r	thighwand_l	upperleg1_r	upperleg1_l	upperleg2_r	upperleg2_l	shankwand_r	shankwand_l	lowerleg1_r	lowerleg1_l	toe_r	toe_l
 	 	X1	Y1	Z1	X2	Y2	Z2	X3	Y3	Z3	X4	Y4	Z4	X5	Y5	Z5	X6	Y6	Z6	X7	Y7	Z7	X8	Y8	Z8	X9	Y9	Z9	X10	Y10	Z10	X11	Y11	Z11	X12	Y12	Z12	X13	Y13	Z13	X14	Y14	Z14	X15	Y15	Z15	X16	Y16	Z16	X17	Y17	Z17	X18	Y18	Z18	X19	Y19	Z19	X20	Y20	Z20	X21	Y21	Z21	X22	Y22	Z22	X23	Y23	Z23	X24	Y24	Z24	X25	Y25	Z25	X26	Y26	Z26	X27	Y27	Z27	X28	Y28	Z28	X29	Y29	Z29	X30	Y30	Z30	X31	Y31	Z31	X32	Y32	Z32	X33	Y33	Z33	X34	Y34	Z34	X35	Y35	Z35	X36	Y36	Z36	X37	Y37	Z37

	47	0.80833	1565.536	886.312	-308.083	1560.888	861.793	-239.652	1559.444	868.548	-389.922	1742.532	485.274	-212.494	1506.286	459.107	-354.496	1794.794	83.956	-200.975	1430.499	71.569	-307.260	1650.679	947.726	-311.945	1651.824	942.367	-192.738	1649.534	953.085	-431.153	1465.470	993.955	-269.612	1470.031	998.132	-354.660	1746.900	491.564	-154.498	1514.748	453.071	-411.557	1726.731	463.890	-257.407	1478.217	454.239	-306.201	1778.948	82.946	-164.262	1416.450	69.887	-343.602	1801.696	99.272	-229.004	1436.015	88.474	-282.025	1481.853	1420.028	-296.224	1601.678	1331.536	-245.049	1608.932	1332.685	-349.619	1589.069	1341.821	-295.545	1654.191	1170.611	-304.570	1744.273	598.533	-82.036	1660.797	516.700	-351.941	1729.340	660.023	-150.821	1606.100	579.733	-402.815	1763.011	578.641	-168.639	1568.986	500.392	-395.999	1772.274	221.327	-80.789	1473.827	187.659	-441.357	1770.054	183.617	-153.046	1444.963	164.683	-369.987	1912.690	62.796	-184.555	1550.525	39.494	-323.108
	48	0.81667	1568.926	885.587	-308.057	1564.527	861.337	-239.496	1562.895	868.130	-389.763	1745.484	484.503	-211.992	1508.254	458.900	-354.300	1807.928	84.490	-201.638	1430.521	71.696	-307.261	1654.336	947.170	-311.887	1655.631	941.780	-192.659	1653.042	952.560	-431.115	1469.291	993.581	-269.238	1473.739	997.845	-354.277	1749.639	490.733	-153.973	1516.571	452.843	-411.380	1728.346	462.721	-256.748	1480.976	452.925	-306.686	1792.353	83.012	-164.825	1416.396	70.120	-343.579	1814.774	99.745	-229.815	1436.125	88.854	-282.028	1485.679	1419.519	-296.072	1605.749	1330.765	-244.640	1612.864	1332.742	-349.950	1592.914	1341.374	-295.413	1658.456	1170.399	-305.857	1746.717	597.733	-81.766	1663.002	516.058	-352.079	1731.583	659.203	-150.732	1608.364	579.394	-402.768	1765.118	577.638	-168.457	1571.560	499.778	-396.261	1782.733	221.082	-81.071	1474.243	187.839	-441.385	1781.350	183.825	-153.446	1445.756	164.762	-369.749	1926.695	63.820	-186.166	1550.391	39.444	-323.228
	49	0.82500	1572.471	884.877	-307.786	1568.239	860.856	-239.327	1566.443	867.677	-389.591	1748.269	483.656	-211.487	1510.310	458.665	-354.044	1820.495	85.192	-202.356	1430.529	71.820	-307.268	1658.052	946.611	-311.805	1659.477	941.198	-192.554	1656.627	952.024	-431.055	1473.147	993.149	-268.802	1477.486	997.497	-353.876	1752.282	489.854	-153.455	1518.471	452.583	-411.144	1729.541	461.551	-256.113	1482.904	453.012	-307.089	1805.218	83.269	-165.438	1416.341	70.357	-343.566	1826.746	100.353	-230.813	1435.822	89.061	-281.941	1489.238	1419.102	-295.837	1609.208	1330.184	-244.546	1616.958	1332.571	-349.972	1596.802	1340.917	-295.249	1662.408	1170.094	-306.142	1749.230	596.898	-81.570	1665.306	515.391	-352.192	1733.417	658.424	-150.517	1610.799	579.183	-403.196	1766.988	576.519	-168.387	1573.625	499.372	-396.619	1792.821	220.977	-81.370	1474.714	187.991	-441.379	1792.428	183.555	-154.305	1446.110	164.740	-369.476	1940.156	64.735	-187.802	1550.208	39.339	-323.310
	50	0.83333	1576.433	884.504	-307.419	1572.053	860.354	-239.109	1570.090	867.190	-389.370	1750.944	482.771	-210.988	1512.455	458.414	-353.730	1832.539	86.044	-203.122	1430.556	71.928	-307.280	1661.842	946.054	-311.683	1663.401	940.628	-192.398	1660.284	951.480	-430.967	1477.037	992.673	-268.315	1481.258	997.098	-353.464	1754.876	488.956	-152.949	1520.452	452.306	-410.850	1730.564	461.452	-256.483	1482.153	454.984	-308.258	1817.570	83.700	-166.102	1416.311	70.586	-343.561	1838.552	101.129	-231.647	1435.669	89.035	-281.762	1492.943	1418.532	-295.096	1613.138	1330.287	-244.900	1620.751	1331.842	-349.241	1600.704	1340.431	-295.024	1666.524	1169.795	-304.711	1751.829	596.048	-81.439	1667.703	514.686	-352.265	1736.020	657.700	-150.078	1613.503	578.707	-403.329	1768.966	575.971	-168.400	1574.141	499.362	-397.261	1802.534	221.008	-81.691	1475.233	188.091	-441.327	1802.843	183.673	-155.145	1446.230	164.762	-369.275	1953.059	65.545	-189.419	1550.006	39.191	-323.360
	51	0.84167	1580.367	884.111	-307.121	1575.963	859.830	-238.841	1573.819	866.675	-389.099	1753.573	481.879	-210.505	1514.690	458.160	-353.359	1844.091	87.036	-203.929	1430.653	72.016	-307.302	1665.704	945.490	-311.519	1667.407	940.054	-192.193	1664.002	950.927	-430.846	1480.964	992.173	-267.800	1485.038	996.659	-353.047	1757.474	488.063	-152.464	1522.516	452.028	-410.500	1732.564	461.629	-257.502	1486.812	452.817	-307.610	1829.430	84.293	-166.813	1416.350	70.804	-343.564	1849.991	102.079	-232.428	1435.756	88.907	-281.611	1497.039	1417.907	-294.471	1617.417	1330.250	-245.049	1624.693	1331.004	-348.560	1604.612	1339.899	-294.740	1670.768	1169.350	-303.338	1754.538	595.206	-81.359	1670.187	513.931	-352.294	1739.141	656.886	-149.765	1616.084	577.988	-403.113	1771.496	575.528	-168.575	1578.146	498.595	-396.853	1811.875	221.172	-82.037	1475.796	188.131	-441.222	1813.378	184.316	-155.809	1446.571	164.746	-369.085	1965.385	66.250	-190.965	1549.815	39.025	-323.382
	52	0.85000	1584.424	883.784	-306.894	1579.960	859.288	-238.515	1577.615	866.141	-388.770	1756.205	481.003	-210.051	1517.020	457.914	-352.931	1855.157	88.153	-204.768	1430.870	72.091	-307.334	1669.636	944.916	-311.311	1671.500	939.471	-191.934	1667.773	950.361	-430.687	1484.943	991.666	-267.277	1488.807	996.201	-352.619	1760.124	487.196	-152.012	1524.669	451.760	-410.094	1735.027	461.256	-257.775	1489.111	452.403	-306.556	1840.796	85.036	-167.565	1416.498	71.017	-343.574	1860.695	103.443	-233.305	1435.569	88.715	-281.615	1501.248	1417.323	-294.134	1621.387	1329.314	-244.438	1628.596	1330.465	-348.330	1608.520	1339.312	-294.384	1674.418	1168.554	-303.595	1757.390	594.390	-81.311	1672.752	513.128	-352.281	1742.141	656.289	-149.531	1618.487	577.178	-402.795	1774.305	574.743	-168.566	1580.062	497.599	-396.293	1820.854	221.451	-82.400	1476.415	188.126	-441.061	1823.709	184.713	-155.603	1446.959	164.720	-368.856	1977.107	66.832	-192.384	1549.663	38.868	-323.379
	53	0.85833	1588.636	883.543	-306.736	1584.008	858.733	-238.139	1581.453	865.599	-388.390	1758.868	480.153	-209.629	1519.449	457.684	-352.452	1865.714	89.366	-205.631	1431.225	72.165	-307.369	1673.621	944.326	-311.055	1675.652	938.868	-191.623	1671.590	949.783	-430.488	1488.993	991.166	-266.765	1492.562	995.749	-352.176	1762.858	486.366	-151.597	1526.915	451.512	-409.637	1736.728	460.061	-256.970	1490.906	452.749	-305.774	1851.649	85.902	-168.346	1416.777	71.237	-343.582	1870.796	104.900	-234.228	1435.276	88.424	-281.720	1505.121	1416.712	-293.449	1625.317	1328.284	-243.720	1632.162	1329.826	-348.090	1612.462	1338.680	-293.974	1677.895	1167.674	-303.916	1760.417	593.613	-81.279	1675.404	512.289	-352.226	1744.813	655.684	-149.661	1621.297	576.614	-402.239	1776.756	573.765	-168.507	1581.800	497.038	-395.796	1829.481	221.813	-82.770	1477.114	188.100	-440.845	1832.914	184.912	-154.981	1447.160	164.777	-368.659	1988.202	67.261	-193.632	1549.566	38.750	-323.352
	54	0.86667	1592.513	883.003	-306.739	1588.082	858.173	-237.710	1585.312	865.056	-387.956	1761.565	479.322	-209.238	1521.973	457.466	-351.934	1875.728	90.633	-206.504	1431.696	72.253	-307.390	1677.646	943.713	-310.749	1679.850	938.238	-191.253	1675.443	949.187	-430.246	1493.129	990.688	-266.273	1496.329	995.317	-351.711	1765.686	485.569	-151.219	1529.258	451.278	-409.141	1738.161	458.503	-256.314	1494.651	451.960	-305.387	1861.955	86.850	-169.141	1417.173	71.472	-343.576	1881.066	106.533	-234.959	1435.294	88.273	-281.728	1508.834	1416.245	-292.574	1629.371	1327.688	-243.125	1635.871	1329.065	-347.782	1616.449	1338.042	-293.551	1681.671	1166.960	-303.380	1763.639	592.883	-81.253	1678.143	511.433	-352.124	1747.477	654.707	-150.148	1624.299	576.299	-401.949	1779.148	572.619	-168.842	1585.271	496.853	-395.543	1837.755	222.216	-83.136	1477.916	188.084	-440.583	1841.577	185.137	-155.161	1448.133	165.163	-368.696	1998.651	67.496	-194.677	1549.527	38.687	-323.307
	55	0.87500	1595.959	882.100	-306.985	1592.157	857.616	-237.242	1589.176	864.519	-387.484	1764.294	478.500	-208.871	1524.577	457.252	-351.397	1885.168	91.904	-207.375	1432.235	72.368	-307.383	1681.701	943.074	-310.402	1684.073	937.581	-190.834	1679.329	948.568	-429.969	1497.349	990.239	-265.798	1500.148	994.913	-351.214	1768.607	484.798	-150.871	1531.697	451.052	-408.624	1739.866	457.577	-256.426	1498.347	451.291	-304.884	1871.680	87.832	-169.939	1417.648	71.731	-343.547	1890.836	108.084	-235.665	1435.520	88.387	-281.560	1512.895	1415.608	-291.922	1633.476	1326.868	-242.619	1639.679	1328.630	-347.568	1620.455	1337.431	-293.121	1685.564	1166.350	-303.755	1767.050	592.197	-81.224	1680.958	510.580	-351.956	1750.382	653.709	-150.366	1627.370	575.918	-401.879	1781.780	571.735	-169.365	1588.675	496.366	-395.259	1845.648	222.606	-83.483	1478.834	188.106	-440.296	1850.098	186.085	-156.107	1449.761	165.637	-368.586	2008.446	67.507	-195.509	1549.536	38.684	-323.256
	56	0.88333	1599.746	881.474	-307.293	1596.225	857.069	-236.746	1593.036	863.989	-386.982	1767.067	477.678	-208.511	1527.238	457.032	-350.856	1894.020	93.129	-208.225	1432.772	72.518	-307.338	1685.778	942.412	-310.028	1688.318	936.902	-190.385	1683.238	947.923	-429.670	1501.632	989.822	-265.326	1504.055	994.539	-350.679	1771.618	484.041	-150.536	1534.225	450.821	-408.098	1742.032	457.316	-256.958	1500.999	451.957	-303.668	1880.796	88.791	-170.724	1418.146	72.020	-343.488	1899.520	108.926	-236.528	1435.856	88.640	-281.368	1517.046	1414.721	-291.414	1637.884	1325.894	-242.656	1643.635	1328.462	-347.257	1624.496	1336.841	-292.670	1690.029	1165.949	-305.054	1770.625	591.535	-81.187	1683.834	509.743	-351.702	1753.757	652.992	-150.278	1630.687	575.508	-401.718	1784.824	571.128	-169.809	1591.141	495.713	-394.573	1853.121	222.929	-83.800	1479.863	188.186	-440.003	1858.221	187.213	-156.845	1450.908	165.539	-368.070	2017.589	67.281	-196.138	1549.577	38.728	-323.216
	57	0.89167	1604.234	881.379	-307.333	1600.287	856.535	-236.226	1596.884	863.463	-386.457	1769.905	476.845	-208.133	1529.939	456.795	-350.313	1902.281	94.258	-209.032	1433.237	72.706	-307.248	1689.873	941.729	-309.640	1692.585	936.209	-189.930	1687.161	947.250	-429.351	1505.950	989.433	-264.836	1508.077	994.192	-350.102	1774.721	483.284	-150.188	1536.831	450.572	-407.564	1743.469	457.137	-257.251	1503.424	452.572	-302.409	1889.283	89.672	-171.482	1418.605	72.337	-343.398	1907.752	109.881	-237.327	1436.333	89.096	-281.204	1521.145	1414.051	-290.838	1642.353	1325.498	-242.737	1647.808	1328.258	-346.770	1628.604	1336.251	-292.182	1694.788	1165.810	-305.266	1774.326	590.870	-81.134	1686.761	508.929	-351.350	1757.208	652.403	-149.964	1633.929	574.878	-401.211	1787.732	570.382	-170.162	1593.508	495.202	-393.760	1860.129	223.131	-84.079	1480.990	188.331	-439.724	1865.697	188.001	-156.947	1452.091	165.245	-367.543	2026.082	66.818	-196.602	1549.637	38.802	-323.201
